Coordinates
version=1
nRows=17
nColumns=24
inDegrees=yes

Units are S.I. units (second, meters, Newtons, ...)
Angles are in degrees.

endheader
time	pelvis_tilt	pelvis_list	pelvis_rotation	pelvis_tx	pelvis_ty	pelvis_tz	hip_flexion_r	hip_adduction_r	hip_rotation_r	knee_angle_r	ankle_angle_r	subtalar_angle_r	mtp_angle_r	hip_flexion_l	hip_adduction_l	hip_rotation_l	knee_angle_l	ankle_angle_l	subtalar_angle_l	mtp_angle_l	lumbar_extension	lumbar_bending	lumbar_rotation
      0.70400000	      0.78765563	     -4.55540469	     -4.70959598	     -0.50426062	      1.01226730	      0.34111877	     11.67726379	      7.15849638	     -3.41109170	    -17.41154535	     -0.13863583	     -9.44289779	      1.10936004	     20.72057147	    -10.99830545	     -9.16433487	    -76.89230796	      2.63492480	    -13.57643708	     -1.52159260	    -12.97222822	      6.30251792	      8.35599965
      0.70816667	      0.78950218	     -4.44970626	     -4.80103578	     -0.49887100	      1.01335950	      0.34142480	     11.17010540	      7.06649136	     -3.25826703	    -17.07799799	     -0.07668728	     -9.43426491	      1.10948884	     21.32679891	    -10.87855094	     -9.18468723	    -76.65061755	      2.86454777	    -13.61564159	     -1.53981747	    -12.94787351	      6.16822901	      8.39606995
      0.71233333	      0.95939081	     -4.27371535	     -5.04563463	     -0.49350977	      1.01479076	      0.34210858	     10.48195011	      6.93178823	     -2.88848725	    -16.73664984	     -0.06801532	     -9.48977163	      1.10280310	     21.63811351	    -10.75044996	     -9.42499626	    -76.24330022	      3.11790160	    -13.55859587	     -1.72883478	    -13.14243356	      5.88220665	      8.74373309
      0.71650000	      0.94204611	     -4.17219890	     -5.12780807	     -0.48807995	      1.01580307	      0.34237069	      9.98766978	      6.83683845	     -2.74704554	    -16.38489860	     -0.02314511	     -9.49189531	      1.10143594	     22.22218991	    -10.62997887	     -9.45691141	    -75.84615279	      3.31746977	    -13.59613766	     -1.74892854	    -13.08741541	      5.76346647	      8.78487866
      0.72066667	      1.14855738	     -3.99263346	     -5.37295325	     -0.48269414	      1.01726560	      0.34306842	      9.24861657	      6.68704484	     -2.36858366	    -16.01191273	     -0.05905348	     -9.57510288	      1.08006360	     22.43795176	    -10.49835190	     -9.73180580	    -75.26160704	      3.49769111	    -13.59267339	     -1.98452266	    -13.31905173	      5.46105546	      9.11788861
      0.72483333	      1.21127385	     -3.83524041	     -5.52374215	     -0.47727668	      1.01840553	      0.34350194	      8.67405107	      6.54011780	     -2.12757765	    -15.66183396	     -0.03248602	     -9.64295846	      1.06384093	     22.84368543	    -10.34495878	     -9.89128704	    -74.65241719	      3.60629562	    -13.69326905	     -2.11344053	    -13.36303992	      5.23652543	      9.22773365
      0.72900000	      1.31781539	     -3.69100369	     -5.68182720	     -0.47184053	      1.01959532	      0.34395371	      8.03915243	      6.40143072	     -1.87717489	    -15.28310085	     -0.03929594	     -9.70345020	      1.04155947	     23.16654381	    -10.20907208	    -10.07527049	    -73.96320261	      3.73691989	    -13.77848125	     -2.24745384	    -13.45631619	      5.02287444	      9.40538659
      0.73316667	      1.42890411	     -3.55078530	     -5.84870702	     -0.46640513	      1.02075063	      0.34443223	      7.40072267	      6.26582487	     -1.61410031	    -14.90695808	     -0.03866792	     -9.77047200	      1.01380600	     23.45628123	    -10.08427928	    -10.28290277	    -73.20254329	      3.84764889	    -13.89043542	     -2.38295021	    -13.55618971	      4.80643358	      9.55361516
      0.73733333	      1.54002904	     -3.41775684	     -5.99604339	     -0.46096974	      1.02186170	      0.34487707	      6.75999021	      6.13117236	     -1.37319235	    -14.52313664	     -0.04740925	     -9.84758072	      0.98039853	     23.72935940	     -9.95832707	    -10.47747106	    -72.37625272	      3.92752330	    -14.01758079	     -2.51264920	    -13.65594542	      4.59572710	      9.70150209
      0.74150000	      1.52249946	     -3.31682031	     -6.08201248	     -0.45551978	      1.02266266	      0.34513264	      6.26613009	      6.02357236	     -1.22857291	    -14.15480496	     -0.09998697	     -9.88175807	      0.96515659	     24.15886114	     -9.83716634	    -10.58039175	    -71.53779045	      4.06729610	    -14.11462962	     -2.55828207	    -13.60585243	      4.46513433	      9.76355726
      0.74566667	      1.79111009	     -3.16635327	     -6.30272427	     -0.45006853	      1.02401424	      0.34577000	      5.44289498	      5.86300875	     -0.89029213	    -13.74322357	     -0.08306212	     -9.96453674	      0.90566478	     24.15352707	     -9.72384053	    -10.91667971	    -70.51456515	      4.09315778	    -14.27564087	     -2.73055222	    -13.88747257	      4.18188103	      9.99494212
      0.74983333	      1.85789822	     -3.04735321	     -6.41918650	     -0.44463338	      1.02490722	      0.34614824	      4.85674158	      5.73644715	     -0.68009089	    -13.37096738	     -0.07631752	    -10.09947201	      0.85601787	     24.41436764	     -9.59849036	    -11.09941649	    -69.49786334	      4.07835503	    -14.44960556	     -2.85071164	    -13.93368856	      3.99784143	     10.08872785
      0.75400000	      2.01727645	     -2.93215976	     -6.56576477	     -0.43917092	      1.02593411	      0.34657696	      4.15924896	      5.59944902	     -0.45052255	    -12.97075249	     -0.11416904	    -10.16074833	      0.78127155	     24.51903395	     -9.48481017	    -11.33893669	    -68.39433888	      4.13080995	    -14.55280333	     -3.01067899	    -14.08444712	      3.79588529	     10.24088705
      0.75816667	      1.97411126	     -2.85503216	     -6.60835854	     -0.43371863	      1.02648844	      0.34674109	      3.70008697	      5.50993144	     -0.35144031	    -12.61608073	     -0.14425400	    -10.26462857	      0.75582666	     24.89001270	     -9.36801401	    -11.42145904	    -67.30784805	      4.16799882	    -14.62715269	     -3.05679739	    -13.99755400	      3.69942650	     10.28609441
      0.76233333	      2.21249147	     -2.73608913	     -6.77706497	     -0.42829580	      1.02756134	      0.34725458	      2.92357976	      5.36415835	     -0.06998923	    -12.22772754	     -0.10999467	    -10.39663719	      0.67646489	     24.83992077	     -9.25675698	    -11.72417789	    -66.05196191	      4.10273924	    -14.83383356	     -3.19887300	    -14.25215239	      3.46753712	     10.41260798
      0.76650000	      2.34167633	     -2.64230435	     -6.87415415	     -0.42285654	      1.02835768	      0.34755142	      2.27233538	      5.23986242	      0.10364149	    -11.85147292	     -0.13030084	    -10.51007781	      0.59108557	     24.92176723	     -9.13439221	    -11.91998620	    -64.78209668	      4.10651623	    -14.90072460	     -3.33117947	    -14.37079245	      3.30098205	     10.53800788
      0.77066667	      2.41037558	     -2.56800420	     -6.96947712	     -0.41741863	      1.02898565	      0.34784336	      1.69594082	      5.14258970	      0.27289473	    -11.49974148	     -0.13272072	    -10.61942734	      0.50148652	     25.05206808	     -9.03876849	    -12.10910751	    -63.47243107	      4.09363900	    -14.96752822	     -3.45997651	    -14.42164491	      3.16864953	     10.62171131
